<?xml version="1.0" standalone="no"?>
<!DOCTYPE svg PUBLIC "-//W3C//DTD SVG 20010904//EN"
 "http://www.w3.org/TR/2001/REC-SVG-20010904/DTD/svg10.dtd">
<svg version="1.0" xmlns="http://www.w3.org/2000/svg"
 width="512.000000pt" height="512.000000pt" viewBox="0 0 512.000000 512.000000"
 preserveAspectRatio="xMidYMid meet">

<g transform="translate(0.000000,512.000000) scale(0.100000,-0.100000)"
fill="#000000" stroke="none">
<path d="M594 5086 c-41 -41 -43 -69 -13 -176 59 -215 211 -396 414 -495 148
-73 177 -77 540 -82 l320 -5 135 46 c207 70 405 106 587 106 l81 0 -10 38
c-17 66 -94 215 -142 279 -91 121 -215 216 -346 270 -129 52 -145 53 -864 53
l-668 0 -34 -34z"/>
<path d="M4395 5111 c-184 -40 -331 -149 -427 -315 -106 -185 -241 -377 -357
-509 -28 -32 -51 -60 -51 -62 0 -2 24 -18 52 -36 201 -123 408 -325 553 -539
31 -47 59 -86 60 -88 2 -2 43 31 92 73 118 102 293 226 431 305 138 79 206
138 269 233 71 106 98 196 98 332 0 86 -5 125 -22 180 -60 189 -217 348 -403
406 -73 23 -231 33 -295 20z"/>
<path d="M2390 4165 c-235 -34 -474 -126 -666 -256 -80 -54 -214 -165 -214
-178 0 -5 362 -299 436 -353 10 -7 697 171 711 185 6 7 71 540 73 595 0 22 -1
22 -127 21 -71 -1 -166 -7 -213 -14z"/>
<path d="M3026 4093 c-3 -16 -19 -156 -37 -312 l-31 -284 273 -273 274 -273
313 21 c230 16 312 25 312 34 0 32 -67 209 -115 304 -157 310 -396 550 -700
703 -80 40 -252 107 -275 107 -5 0 -11 -12 -14 -27z"/>
<path d="M1260 3433 c-159 -240 -263 -544 -290 -843 -10 -122 -14 -370 -5
-370 11 0 580 212 588 219 6 6 104 361 180 653 l15 58 -219 175 c-120 96 -220
175 -222 175 -1 0 -23 -30 -47 -67z"/>
<path d="M2386 3176 c-276 -75 -341 -95 -348 -111 -4 -11 -48 -173 -98 -360
l-91 -339 260 -260 260 -260 353 94 c194 51 356 96 360 99 4 3 48 159 98 346
50 187 93 347 96 355 7 19 -510 530 -535 529 -9 -1 -169 -42 -355 -93z"/>
<path d="M573 2796 c-293 -95 -510 -351 -552 -651 -5 -38 -13 -224 -16 -412
l-7 -343 30 -30 c39 -38 78 -39 196 -5 102 30 168 61 252 120 71 51 172 157
179 188 2 12 6 238 9 502 3 335 9 506 18 568 l14 87 -25 0 c-14 -1 -58 -11
-98 -24z"/>
<path d="M3858 2676 c-157 -11 -289 -24 -292 -27 -8 -7 -186 -671 -186 -691 0
-15 333 -441 349 -446 13 -4 121 126 190 228 161 240 246 507 258 808 6 145 5
152 -13 151 -10 -1 -148 -11 -306 -23z"/>
<path d="M4477 2527 c-8 -207 -60 -456 -127 -611 -19 -44 -20 -68 -20 -336 0
-323 10 -414 61 -536 89 -214 268 -380 484 -451 44 -14 104 -26 133 -27 49 -1
56 2 83 32 l30 33 -4 702 c-3 785 0 742 -78 904 -101 211 -301 372 -530 426
l-26 7 -6 -143z"/>
<path d="M1299 2023 l-336 -125 -6 -187 c-4 -102 -7 -294 -7 -426 0 -220 2
-243 20 -272 40 -67 39 -67 490 -59 223 4 408 10 411 14 4 4 68 157 143 341
l137 335 -253 253 c-139 139 -255 253 -258 252 -3 0 -156 -57 -341 -126z"/>
<path d="M2785 1648 c-187 -51 -342 -93 -344 -94 -4 -3 -226 -544 -236 -574
-6 -19 -2 -20 107 -20 370 0 647 56 913 185 84 41 244 134 273 160 2 2 -74
100 -168 219 -104 130 -179 216 -188 215 -10 0 -170 -41 -357 -91z"/>
<path d="M2760 688 c-103 -18 -358 -28 -729 -28 l-394 0 -93 -93 c-80 -82 -99
-108 -143 -198 -51 -106 -81 -204 -81 -272 0 -30 7 -46 30 -69 l30 -30 338 7
c185 3 370 11 410 16 262 33 493 200 612 442 39 80 75 195 68 220 -2 10 -15
11 -48 5z"/>
</g>
</svg>
