<svg xmlns="http://www.w3.org/2000/svg" xmlns:xlink="http://www.w3.org/1999/xlink" width="500" zoomAndPan="magnify" viewBox="0 0 375 374.999991" height="500" preserveAspectRatio="xMidYMid meet" version="1.2"><g id="11e955cb2b"><path style=" stroke:none;fill-rule:evenodd;fill:#000000;fill-opacity:1;" d="M 75.117188 118.238281 C 75.726562 115.222656 76.492188 112.363281 73.40625 110.515625 C 70.316406 108.648438 56.007812 98.289062 50.738281 85.050781 C 45.449219 71.832031 43.027344 59.015625 44.507812 54.8125 C 45.992188 50.609375 62.027344 42.21875 77.246094 45.691406 C 92.460938 49.160156 101.796875 59.03125 108.480469 66.703125 C 115.144531 74.378906 115.457031 78.164062 117.484375 76.734375 C 119.507812 75.304688 133.222656 71.046875 147.707031 72.441406 C 147.707031 72.441406 151.613281 69.042969 160.410156 57.96875 C 169.203125 46.894531 175.378906 39.933594 182.726562 37.703125 C 190.074219 35.453125 219.492188 31.390625 227.519531 34.320312 C 235.546875 37.230469 263.921875 48.898438 278.699219 54.898438 C 293.480469 60.898438 299.710938 63.757812 299.570312 68.378906 C 299.449219 73 289.691406 79.488281 274.164062 81.039062 C 258.648438 82.59375 231.238281 78.582031 217.417969 76.507812 C 203.597656 74.429688 199.355469 73.367188 193.300781 73.785156 C 187.246094 74.203125 181.015625 76.574219 184 76.769531 C 187.003906 76.960938 209.722656 81.738281 227.398438 90.894531 C 245.09375 100.066406 282.851562 127.394531 283.078125 165.117188 C 283.078125 165.117188 303.355469 172.773438 316.636719 176.734375 C 329.914062 180.691406 338.742188 186.988281 346.925781 193.300781 C 355.113281 199.613281 361.792969 202.144531 362.441406 207.96875 C 363.070312 213.792969 354.03125 215.851562 345.027344 218.851562 C 336.023438 221.832031 322.882812 220.578125 313.355469 215.082031 C 303.84375 209.589844 290.304688 197.695312 283.464844 194.105469 C 283.464844 194.105469 281.40625 192.8125 280.828125 194 C 280.253906 195.183594 279.03125 208.472656 270.480469 223.472656 C 270.480469 223.472656 272.992188 227.394531 277.148438 232.347656 C 281.300781 237.285156 283.988281 239.867188 283.375 241.175781 C 282.75 242.480469 277.652344 240.074219 272.3125 236.988281 C 266.972656 233.902344 264.933594 231.792969 263.535156 232.59375 C 262.140625 233.414062 242.039062 253.503906 211.796875 255.472656 C 211.796875 255.472656 218.183594 262.851562 226.089844 269.390625 C 233.992188 275.949219 237.292969 281.09375 238.601562 295.046875 C 239.910156 308.996094 239.890625 326.855469 235.214844 335.121094 C 230.539062 343.390625 223.960938 338.769531 211.292969 324.851562 C 198.625 310.917969 194.699219 309.539062 188.257812 293.527344 C 181.820312 277.5 174.4375 254.898438 171.664062 253.46875 C 168.90625 252.039062 149.347656 250.363281 135.070312 243.808594 C 120.796875 237.25 90.105469 217.140625 76.894531 181.199219 C 76.894531 181.199219 75.082031 178.355469 73.003906 186.847656 C 70.925781 195.339844 68.222656 210.21875 68.78125 230.605469 C 69.339844 250.992188 67.664062 268.816406 63.441406 283.097656 C 59.21875 297.382812 55.398438 306.398438 46.792969 296.703125 C 38.210938 287.007812 20.429688 263.722656 16.03125 230.203125 C 11.652344 196.648438 12.925781 193.738281 19.851562 180.359375 C 26.796875 166.96875 34.648438 152.195312 41.542969 148.394531 C 48.433594 144.609375 62.742188 139.238281 70.648438 140.597656 C 70.648438 140.597656 72.496094 131.109375 75.117188 118.238281 Z M 75.117188 118.238281 "/></g></svg>